<?xml version="1.0" encoding="UTF-8"?>
<svg id="Layer_1" data-name="Layer 1" xmlns="http://www.w3.org/2000/svg" version="1.1" viewBox="0 0 669.4 514.7">
  <defs>
    <style>
      .cls-1, .cls-2 {
        fill: #000;
      }

      .cls-1, .cls-2, .cls-3 {
        stroke: #231f20;
        stroke-miterlimit: 10;
      }

      .cls-2 {
        stroke-width: 1.4px;
      }

      .cls-3 {
        fill: #231f20;
        stroke-width: 2px;
      }
    </style>
  </defs>
  <path class="cls-1" d="M290,108.4c3.7-8.8,6.6-17.8,8.7-27.1.7-3.4,2.3-7.5,5.7-7.6,4-.1,5.4,5.4,5.1,9.4-.9,13.7-5,27-10,39.8-17.5,44.5-46.1,83.4-75,120.9-15.9,20.6-29.1,42.8-35.9,68.3-7,26.3-4.6,52.1,10.7,74.8,19.8,29.5,53.8,44.4,88.7,44.1,29.6-.2,58.4-12.2,82.3-29.1,16.1-11.4,32.4-25.3,42-43.2,11.3-21.2,8.6-41.7.3-63.3-3.4-8.9-6.9-17.8-10.3-26.7-3-7.8-9.2-17.9-10-26.2-1.4-14.4,4.6-28,9.3-41.3,3.5-10.1,4.1-23.3,13.2-30.4,7.3-5.7,25.4,61.6,26.4,66.4,9.4,45.2,3.4,92.1-13.7,134.8-28.2,70.4-93.6,150.7-179.5,126.2-76.9-21.9-101.2-110.3-84.1-180.8,14.1-58.2,53.3-100.8,88.6-147.1,14.6-19.2,28.3-39.7,37.6-61.9h0Z"/>
  <circle class="cls-2" cx="397.1" cy="73.6" r="48.5"/>
  <path class="cls-3" d="M28.3,166.3c-2.6,0-4.1-1.9-3.4-4.1l25.7-71.4c8.6-23.4,16.7-48,16.7-52.5s-1.9-6-4.8-6c-5.6,0-20.1,14.5-24.9,20.1-1.1,1.1-2.6,1.5-3.7.4l-3.7-4.1c-1.5-1.1-1.5-2.2-.4-3.7,5.6-7.4,29-37.6,67.7-37.6s14.9,8.6,14.9,14.5-7.8,25.3-17.9,48.4l3.4,2.6C109,56.5,139.9,7.4,176.7,7.4s23.8,14.5,23.8,24.9-5.2,23.8-21.6,69.6c-8.9,25.3-11.9,33.5-11.9,37.9s1.9,6.3,4.8,6.3c4.5,0,16.7-11.5,20.5-16,1.1-1.5,2.6-1.1,3.7,0l3.4,3c1.5,1.1,1.5,3,.4,4.5-4.5,6-27.2,32.4-62.5,32.4s-14.9-6.7-14.9-14.1,7.8-29,19.3-61.8c6-17.1,14.9-42,14.9-48.7s-3-8.2-7.4-8.2c-8.6,0-36.1,29.8-51,53.9-8.2,13-16,24.9-18.2,31.2l-14.5,41.7c-.7,1.5-1.5,2.2-5.6,2.2h-31.6Z"/>
  <path class="cls-3" d="M480.6,481.4c-2.6,0-4.1-1.9-3.3-4.1l25.7-71.4c8.5-23.4,16.7-48,16.7-52.5s-1.9-6-4.8-6c-5.6,0-20.1,14.5-24.9,20.1-1.1,1.1-2.6,1.5-3.7.4l-3.7-4.1c-1.5-1.1-1.5-2.2-.4-3.7,5.6-7.4,29-37.6,67.7-37.6s14.9,8.6,14.9,14.5-7.8,25.3-17.9,48.4l3.3,2.6c11.2-16.4,42-65.5,78.9-65.5s23.8,14.5,23.8,24.9-5.2,23.8-21.6,69.6c-8.9,25.3-11.9,33.5-11.9,37.9s1.9,6.3,4.8,6.3c4.5,0,16.7-11.5,20.5-16,1.1-1.5,2.6-1.1,3.7,0l3.3,3c1.5,1.1,1.5,3,.4,4.5-4.5,6-27.2,32.4-62.5,32.4s-14.9-6.7-14.9-14.1,7.8-29,19.3-61.8c6-17.1,14.9-42,14.9-48.7s-3-8.2-7.4-8.2c-8.6,0-36.1,29.8-51,53.9-8.2,13-16,24.9-18.2,31.2l-14.5,41.7c-.7,1.5-1.5,2.2-5.6,2.2h-31.6Z"/>
</svg>